<svg xmlns="http://www.w3.org/2000/svg" width="55.974" height="55.974" viewBox="0 0 55.974 55.974"><defs><style>.a{fill:#fffaff;}</style></defs><path class="a" d="M8.2,55.974H26.456v-19.9H19.9V29.518h6.559v-8.2a8.209,8.209,0,0,1,8.2-8.2h8.2v6.559H36.3a3.283,3.283,0,0,0-3.28,3.28v6.559h9.543l-1.093,6.559h-8.45v19.9H47.775a8.209,8.209,0,0,0,8.2-8.2V8.2a8.209,8.209,0,0,0-8.2-8.2H8.2A8.209,8.209,0,0,0,0,8.2V47.775A8.209,8.209,0,0,0,8.2,55.974ZM3.28,8.2A4.925,4.925,0,0,1,8.2,3.28H47.775a4.925,4.925,0,0,1,4.92,4.92V47.775a4.925,4.925,0,0,1-4.92,4.92H36.3V39.357h7.949l2.186-13.119H36.3v-3.28h9.839V9.839H34.656A11.492,11.492,0,0,0,23.177,21.318v4.92H16.617V39.357h6.559V52.694H8.2a4.925,4.925,0,0,1-4.92-4.92Zm0,0"/></svg>