<svg xmlns="http://www.w3.org/2000/svg" width="55.974" height="55.974" viewBox="0 0 55.974 55.974"><defs><style>.a{fill:#fffaff;}</style></defs><path class="a" d="M27.987,0A27.987,27.987,0,1,0,55.974,28.1,28.178,28.178,0,0,0,27.987,0Zm4.92,52.2a24.844,24.844,0,0,1-9.839,0V44.528a4.663,4.663,0,0,1,1.148-3.378,35.867,35.867,0,0,0,2.033-2.984l-2.525-.394c-6.494-.951-9.052-4.329-10.069-6.953a11.154,11.154,0,0,1,1.739-10.692,1.977,1.977,0,0,0,.394-1.9,9.661,9.661,0,0,1-.1-4.821c1.739.249,3.527,1.494,5.018,2.394a2.356,2.356,0,0,0,1.377.328,23.835,23.835,0,0,1,5.936-.853,20.1,20.1,0,0,1,5.477.787,2.366,2.366,0,0,0,1.771-.262c1.559-.95,3.286-2.153,5.018-2.394a9.666,9.666,0,0,1-.1,4.821,1.975,1.975,0,0,0,.394,1.9A11.155,11.155,0,0,1,42.32,30.818c-1.017,2.624-3.575,6-10.069,6.953l-2.525.394a35.073,35.073,0,0,0,2.034,2.984,4.664,4.664,0,0,1,1.147,3.378Zm3.28-.951V44.528a7.865,7.865,0,0,0-.919-4.034c4.985-1.344,8.528-4.3,10.1-8.527A14.42,14.42,0,0,0,43.5,18.519c.492-2.2.492-5.707-.688-7.347a2.56,2.56,0,0,0-2.165-1.115h-.033c-2.543.138-4.545,1.418-6.691,2.722a23.131,23.131,0,0,0-5.969-.787,22.655,22.655,0,0,0-5.87.787c-2.259-1.362-4.241-2.588-6.855-2.722a2.516,2.516,0,0,0-2.066,1.115c-1.18,1.64-1.18,5.149-.688,7.347A14.433,14.433,0,0,0,10.6,31.966c1.574,4.231,5.116,7.183,10.1,8.527a7.131,7.131,0,0,0-.856,2.874,4.372,4.372,0,0,1-2.693.222,3.629,3.629,0,0,1-2.1-1.8c-1.3-2.188-3.521-3.975-6.047-3.742L9.3,41.313c1.17-.107,2.334,1.13,2.939,2.151a6.751,6.751,0,0,0,7.554,3.366v4.422a24.708,24.708,0,1,1,16.4,0Zm0,0"/></svg>