<svg xmlns="http://www.w3.org/2000/svg" width="55.974" height="55.974" viewBox="0 0 55.974 55.974"><defs><style>.a{fill:#fffaff;}</style></defs><path class="a" d="M8.2,55.974H47.775a8.209,8.209,0,0,0,8.2-8.2V8.2a8.209,8.209,0,0,0-8.2-8.2H8.2A8.209,8.209,0,0,0,0,8.2V47.775A8.209,8.209,0,0,0,8.2,55.974ZM3.28,8.2A4.925,4.925,0,0,1,8.2,3.28H47.775a4.925,4.925,0,0,1,4.92,4.92V47.775a4.925,4.925,0,0,1-4.92,4.92H8.2a4.925,4.925,0,0,1-4.92-4.92Zm0,0"/><path class="a" d="M135.759,150.518A14.759,14.759,0,1,0,121,135.759,14.776,14.776,0,0,0,135.759,150.518Zm0-26.238a11.479,11.479,0,1,1-11.479,11.479A11.492,11.492,0,0,1,135.759,124.28Zm0,0" transform="translate(-107.772 -107.772)"/><path class="a" d="M365.92,70.839A4.92,4.92,0,1,0,361,65.92,4.925,4.925,0,0,0,365.92,70.839Zm0-6.559a1.64,1.64,0,1,1-1.64,1.64A1.642,1.642,0,0,1,365.92,64.28Zm0,0" transform="translate(-321.534 -54.331)"/></svg>