<svg xmlns="http://www.w3.org/2000/svg" width="55.974" height="55.974" viewBox="0 0 55.974 55.974"><defs><style>.a{fill:#fffaff;}</style></defs><path class="a" d="M47.775,0H8.2A8.209,8.209,0,0,0,0,8.2V47.775a8.209,8.209,0,0,0,8.2,8.2H47.775a8.209,8.209,0,0,0,8.2-8.2V8.2A8.209,8.209,0,0,0,47.775,0Zm4.92,47.775a4.925,4.925,0,0,1-4.92,4.92H8.2a4.925,4.925,0,0,1-4.92-4.92V8.2A4.925,4.925,0,0,1,8.2,3.28H47.775a4.925,4.925,0,0,1,4.92,4.92Zm0,0"/><path class="a" d="M91,233.177h9.839V210H91Zm3.28-19.9h3.28V229.9H94.28Zm0,0" transform="translate(-81.052 -187.042)"/><path class="a" d="M224.128,210h-.009a9.822,9.822,0,0,0-3.28.558V210H211v23.177h9.839v-11.7a1.64,1.64,0,0,1,3.28,0v11.7h9.839V220.351c0-5.307-4.305-10.347-9.83-10.352Zm6.55,19.9H227.4v-8.418a4.92,4.92,0,0,0-9.839,0V229.9h-3.28V213.279h3.28v3.282l2.625-1.971a6.5,6.5,0,0,1,3.935-1.311h.006c3.491,0,6.553,3.308,6.553,7.072Zm0,0" transform="translate(-187.933 -187.041)"/><path class="a" d="M91,99.839h9.839V90H91Zm3.28-6.559h3.28v3.28H94.28Zm0,0" transform="translate(-81.052 -80.161)"/></svg>